<svg width="25" height="25" viewBox="0 0 25 25" fill="none" xmlns="http://www.w3.org/2000/svg">
<path d="M12.9237 22.8581C7.41068 22.8581 2.94147 18.3889 2.94147 12.8758C2.94147 7.3628 7.41068 2.89359 12.9237 2.89359C18.4368 2.89359 22.906 7.3628 22.906 12.8758C22.8999 18.3864 18.4343 22.8521 12.9237 22.8581ZM12.9237 4.89004C8.53693 4.89115 4.97232 8.43061 4.94016 12.8173C4.90799 17.204 8.42032 20.7953 12.8066 20.8608C17.193 20.9262 20.8108 17.4412 20.9095 13.0555V14.8354V12.8758C20.9046 8.46746 17.3321 4.89499 12.9237 4.89004ZM12.9237 17.867L7.9326 12.8758L12.9237 7.88472L14.3312 9.29222L11.7558 11.8776H17.9149V13.8741H11.7558L14.3312 16.4595L12.9237 17.867Z" fill="#2E3A59"/>
</svg>
