<svg width="26" height="26" viewBox="0 0 26 26" fill="none" xmlns="http://www.w3.org/2000/svg">
<path d="M13.0001 23.8333C11.3622 23.8379 9.74495 23.4673 8.27246 22.75C7.73356 22.4878 7.21722 22.1817 6.72871 21.8345L6.5803 21.7262C5.23677 20.7345 4.13833 19.4482 3.3693 17.966C2.57384 16.4318 2.16128 14.728 2.16674 13C2.16674 7.01688 7.01704 2.16663 13.0001 2.16663C18.9832 2.16663 23.8335 7.01688 23.8335 13C23.8389 14.7272 23.4267 16.4302 22.632 17.9638C21.8641 19.4452 20.7672 20.7311 19.4254 21.723C18.9192 22.0935 18.3821 22.4197 17.8199 22.698L17.7332 22.7413C16.2598 23.4625 14.6406 23.8361 13.0001 23.8333ZM13.0001 18.4166C11.3767 18.4135 9.88843 19.3202 9.14671 20.7642C11.5749 21.9669 14.4254 21.9669 16.8535 20.7642V20.7588C16.1109 19.3163 14.6225 18.4117 13.0001 18.4166ZM13.0001 16.25C15.3468 16.253 17.5105 17.5176 18.6649 19.5606L18.6811 19.5465L18.6963 19.5335L18.6779 19.5498L18.667 19.5585C21.4068 17.1915 22.3864 13.3708 21.1237 9.97758C19.8609 6.58433 16.6218 4.33363 13.0012 4.33363C9.38061 4.33363 6.14154 6.58433 4.87876 9.97758C3.61598 13.3708 4.59563 17.1915 7.33538 19.5585C8.49049 17.5164 10.654 16.2528 13.0001 16.25ZM13.0001 15.1666C10.6069 15.1666 8.6668 13.2265 8.6668 10.8333C8.6668 8.44006 10.6069 6.49996 13.0001 6.49996C15.3934 6.49996 17.3335 8.44006 17.3335 10.8333C17.3335 11.9826 16.8769 13.0848 16.0643 13.8974C15.2516 14.7101 14.1494 15.1666 13.0001 15.1666ZM13.0001 8.66663C11.8035 8.66663 10.8335 9.63668 10.8335 10.8333C10.8335 12.0299 11.8035 13 13.0001 13C14.1967 13 15.1668 12.0299 15.1668 10.8333C15.1668 9.63668 14.1967 8.66663 13.0001 8.66663Z" fill="#2E3A59"/>
</svg>
